<?xml version="1.0" standalone="no"?>
<!DOCTYPE svg PUBLIC "-//W3C//DTD SVG 20010904//EN"
 "http://www.w3.org/TR/2001/REC-SVG-20010904/DTD/svg10.dtd">
<svg version="1.0" xmlns="http://www.w3.org/2000/svg"
 width="495.000000pt" height="495.000000pt" viewBox="0 0 495.000000 495.000000"
 preserveAspectRatio="xMidYMid meet">
<metadata>
Created by potrace 1.14, written by Peter Selinger 2001-2017
</metadata>
<g transform="translate(0.000000,495.000000) scale(0.100000,-0.100000)"
fill="#000000" stroke="none">
<path d="M2680 4824 c-124 -23 -238 -45 -255 -48 -16 -3 -66 -12 -109 -21 -44
-8 -93 -18 -110 -21 -33 -5 -107 -19 -310 -59 -71 -14 -138 -25 -148 -25 -25
0 -24 -23 17 -244 19 -103 38 -209 41 -235 3 -25 8 -48 9 -51 2 -3 6 -26 10
-50 3 -25 11 -65 16 -90 12 -52 16 -113 24 -434 4 -130 3 -236 -2 -236 -4 0
-45 7 -90 14 -45 8 -101 18 -125 21 -48 7 -88 25 -193 83 -38 21 -101 56 -140
77 -67 37 -229 126 -264 145 -13 8 -251 75 -300 85 -9 2 -80 21 -159 44 -78
22 -154 42 -169 43 l-27 3 -187 -620 c-102 -341 -185 -621 -184 -623 2 -2 94
-34 206 -73 112 -38 243 -83 291 -100 48 -16 134 -51 191 -78 56 -26 121 -56
142 -66 22 -9 63 -27 90 -40 28 -12 112 -51 187 -85 76 -34 136 -65 134 -69
-2 -3 -30 -51 -61 -106 -32 -55 -79 -136 -104 -180 -25 -44 -50 -88 -56 -97
-5 -9 -43 -74 -84 -145 -41 -70 -77 -130 -80 -133 -3 -3 -37 -41 -76 -85 -38
-43 -77 -86 -85 -95 -8 -9 -49 -54 -90 -100 -148 -167 -165 -185 -172 -188
-22 -10 8 -39 173 -167 99 -77 189 -147 198 -155 10 -8 65 -51 121 -95 56 -44
108 -85 114 -90 6 -6 40 -33 76 -60 36 -28 70 -54 76 -60 6 -5 26 -21 44 -35
18 -14 41 -32 51 -40 9 -8 32 -26 49 -40 18 -14 53 -42 78 -62 26 -21 49 -38
52 -37 3 0 75 92 160 205 85 113 163 215 174 227 10 12 32 42 49 67 17 25 34
47 37 50 4 3 31 50 60 105 29 55 83 156 120 225 37 69 90 169 119 223 41 76
73 119 140 188 102 104 84 108 160 -41 24 -47 47 -89 51 -95 4 -5 44 -82 90
-170 137 -263 118 -233 362 -588 42 -62 82 -117 88 -124 5 -7 10 -14 10 -17 0
-5 176 -263 190 -279 4 -5 112 56 241 134 129 78 243 147 254 153 11 6 31 19
45 28 14 9 147 89 295 178 149 90 272 164 273 166 3 2 -384 523 -445 599 -72
90 -154 207 -261 370 -72 110 -135 205 -139 210 -5 6 -15 21 -24 35 -9 14 -23
37 -33 52 l-17 26 81 62 c44 34 102 70 128 80 26 10 163 51 306 90 142 39 273
78 290 85 17 7 90 34 161 60 72 25 153 55 180 65 28 10 100 37 160 59 61 22
117 42 126 46 17 6 23 -14 -87 300 -20 55 -44 125 -54 155 -10 30 -42 120 -70
200 -28 80 -67 192 -86 250 -20 58 -39 114 -44 125 -5 11 -23 63 -41 115 -17
52 -35 99 -39 103 -4 5 -41 -6 -81 -23 -41 -18 -78 -33 -84 -34 -13 -4 -63
-23 -90 -36 -39 -17 -350 -138 -375 -145 -14 -3 -99 -30 -190 -59 -91 -29
-226 -72 -300 -96 -88 -28 -152 -54 -182 -76 l-48 -34 -1 38 c0 20 -2 53 -3
72 -2 19 -7 94 -11 165 -4 72 -9 146 -10 165 -2 19 -6 85 -10 145 -9 147 -21
250 -30 265 -3 5 -73 345 -90 440 -3 14 -7 34 -9 45 -3 11 -12 54 -20 95 -25
120 -25 120 -44 119 -9 -1 -118 -21 -242 -45z"/>
</g>
</svg>
